<svg id="图层_1" data-name="图层 1" xmlns="http://www.w3.org/2000/svg" viewBox="0 0 310 310"><defs><style>.cls-1{fill:#084c91;}.cls-2{fill:#fff;}</style></defs><rect class="cls-1" width="310" height="310"/><path class="cls-2" d="M163.61,310H134c-7.78-28.5-22.72-70.05-39.9-102.35,13.82-31.55,28-75.43,34.86-100.37l26.45,6c-2.11,7.21-4.51,14.42-6.91,21.63l-.91,3c-2.1,5.71-4.21,11.72-6.31,17.43l-.9,2.7c-6.31,17.44-12.92,34.27-19.54,49.59,6,10.52,11.73,22.84,17.44,35.47l1.2,3C149.64,269.65,158.67,294,163.61,310Z"/><path class="cls-2" d="M191,310c-5.12-16-12.58-36.08-21.17-56.36l-1.5-3c-6.61-15-13.83-30-21.34-43.28,4.51-9.61,9.32-20.44,13.83-31.25l1.2-3c9.92-24.34,18.93-49.29,23.44-65.81l26.45,6.31c-1.51,4.81-3.31,9.31-4.81,14.12l-1.2,2.71c-.9,3-2.11,5.7-3,8.71l-1.2,2.7c-.3.61-.3.91-.6,1.51l-.9,2.7c-1.51,3.91-3,7.52-4.51,11.43l-1.2,2.7c-.31.6-.31.9-.6,1.5l-1.21,2.7-1.2,3c-5.71,13.83-11.72,27.35-17.43,39.67,6.31,10.52,12.62,22.84,18.63,35.17l1.5,3A690.91,690.91,0,0,1,220.76,310Z"/><path class="cls-2" d="M251.26,310c-5.68-15.15-14.1-33.86-23.43-52.76l-1.51-3-1.5-3c-.3-.6-.3-.9-.6-1.5l-1.5-3a49.84,49.84,0,0,1-3-5.71l-1.8-3c-5.41-10.82-11.42-21-17.13-30.66,6-11.42,12.32-24.94,18.63-38.17l1.5-3,1.5-3c9.62-20.73,18.34-41.47,23.45-55.89l27.05,6.61c-4.21,11.42-9.32,23.14-14.73,34.86l-1.2,2.7c-2.71,5.71-5.71,11.12-8.42,16.83l-1.2,2.71c-6.61,12.62-13.22,24.94-18.93,36.36,6.91,11.12,14.42,23.74,21.64,36.67l1.5,3c.6.91,1.2,2.11,1.8,3l1.51,2.7c11.6,21.72,22,42.86,27.77,57.27Z"/></svg>