<svg id="图层_1" data-name="图层 1" xmlns="http://www.w3.org/2000/svg" viewBox="0 0 105.45 22.11"><defs><style>.cls-1{fill:#fff;}</style></defs><path class="cls-1" d="M3.43,21.63,1.85,19.92a3.75,3.75,0,0,0,1.53-2.73V10H0V7.39H6.24v9.15L8.9,15.1c.41.72.48,1.8.77,2.33C4.92,20.47,3.82,21.19,3.43,21.63Zm2-15.82c-.91-.89-2.78-2.59-4.13-3.75L3.26.41c.44.36.94.74,1.42,1.15l.22.17c1,.79,1.92,1.63,2.56,2.18Zm13,16.3-.22-2.67c.6,0,1.39,0,2,0h1.06c.48,0,.72-.17.72-.53V3.41H9.31V1h15.6V19c0,1.42-.26,2.19-1.32,2.64S21.17,22.11,18.51,22.11Zm2-14.55H10V5.33H20.47Zm-.93,10H10.8v-8h8.74Zm-2.76-2.23V11.76H13.49v3.53Z"/><path class="cls-1" d="M30.24,22.08l-2.06-2.71A12.81,12.81,0,0,1,31.61,17V11.21H28.7V8.69h6.24V17a10.64,10.64,0,0,0,1.73.91c1.83.89,4.92,1.06,8.14,1.06h.24c1.25,0,2.76-.05,4.27-.12h.26c1.85-.1,3.63-.24,4.81-.38l0,2.85c-1.2.1-3,.17-4.73.22l-.41,0h-.38l-.41,0c-1.32,0-2.59,0-3.62,0-3.48,0-6.19-.26-8.28-1.22-1.59-.55-2.57-1.32-3.19-1.32C32.57,19.13,31.25,20.69,30.24,22.08Zm2.69-16.2C32.09,4.82,30.29,2.76,29,1.34L31.42,0,33.1,1.63l.19.19c.91.92,1.8,1.83,2.35,2.45ZM40.13,18a43.4,43.4,0,0,0-4-9.22c.55-1.13,1.1-2.52,1.63-3.89l.07-.24.1-.24C38.47,2.81,39,1.3,39.34.22l3,.67a20.66,20.66,0,0,1-1.24,3.48l-.1.21c0,.12-.1.22-.14.34l-.1.22c-.62,1.29-1.27,2.52-1.8,3.62.46.72.94,1.49,1.39,2.3l.12.22A43.78,43.78,0,0,1,43.27,17ZM46,17.93a42.71,42.71,0,0,0-4.44-9.19A70.58,70.58,0,0,0,45.12.22l3,.69A47.83,47.83,0,0,1,46,5.78L45.89,6c-.48,1-1,1.9-1.39,2.74a55.71,55.71,0,0,1,4.56,8.13Zm5.55,0A41.35,41.35,0,0,0,46.8,8.76,61.45,61.45,0,0,0,50.67.22l3,.74c-.19.5-.41,1-.62,1.49l-.1.21C52,4.85,50.83,7,49.83,8.76c.55.74,1.12,1.59,1.65,2.43l.14.21c1,1.56,1.88,3.17,2.53,4.44l.09.17c.15.31.27.58.38.84Z"/><path class="cls-1" d="M63.54,9.2h2.09v8.91h5.48V20H63.54Z"/><path class="cls-1" d="M71.43,16a4,4,0,0,1,4.18-4.14A4,4,0,0,1,79.75,16a4.12,4.12,0,0,1,0,.68H73.58a2.08,2.08,0,0,0,2.1,2,2,2,0,0,0,1.88-1.08L79.3,18a4.23,4.23,0,0,1-7.87-2Zm6.24-.67a2.07,2.07,0,0,0-4.14,0Z"/><path class="cls-1" d="M83.69,14.5l.11.28L84,14.5,85.61,12h2.13L85,16l2.8,4H85.65l-1.71-2.47-.14-.25-.11.25L82,20H79.85L82.65,16l-2.74-4H82Z"/><path class="cls-1" d="M88.66,12h2v4.52c0,1.21.46,1.84,1.32,1.84a2.32,2.32,0,0,0,2-1.45V12h2v5.66c0,.43.13.59.48.61V20a4.67,4.67,0,0,1-.87.08c-.73,0-1.22-.34-1.29-.92l0-.65a3.66,3.66,0,0,1-3.19,1.64c-1.64,0-2.51-1.08-2.51-3.12Z"/><path class="cls-1" d="M103.42,20V15.49c0-1.26-.46-1.82-1.26-1.82a2.36,2.36,0,0,0-2,1.65V20h-2V12h1.84v1.47a3.53,3.53,0,0,1,3.13-1.61c2,0,2.4,1.58,2.4,3.12V20Z"/></svg>