<svg id="图层_1" data-name="图层 1" xmlns="http://www.w3.org/2000/svg" viewBox="0 0 146.98 184.54"><defs><style>.cls-1{fill:#084c91;}.cls-2{fill:#fff;}</style></defs><rect class="cls-1" width="146.98" height="146.98"/><path class="cls-2" d="M77.57,147h-14c-3.69-13.52-10.77-33.22-18.92-48.53,6.55-15,13.25-35.76,16.53-47.59l12.54,2.85c-1,3.42-2.14,6.84-3.28,10.26L70,65.39c-1,2.71-2,5.56-3,8.27l-.43,1.28c-3,8.27-6.12,16.25-9.26,23.51,2.85,5,5.56,10.83,8.27,16.82l.57,1.42C71,127.85,75.23,139.4,77.57,147Z"/><path class="cls-2" d="M90.55,147c-2.42-7.58-6-17.11-10-26.72l-.72-1.43A227.83,227.83,0,0,0,69.69,98.31c2.14-4.56,4.42-9.69,6.55-14.82l.57-1.43a308.35,308.35,0,0,0,11.12-31.2l12.54,3c-.72,2.28-1.57,4.42-2.28,6.7l-.57,1.28c-.43,1.43-1,2.71-1.43,4.13l-.57,1.28c-.14.29-.14.43-.28.72l-.43,1.28c-.72,1.85-1.43,3.56-2.14,5.42l-.57,1.28c-.14.28-.14.43-.28.71l-.57,1.28-.57,1.43c-2.71,6.55-5.56,13-8.27,18.81,3,5,6,10.82,8.84,16.67l.71,1.42A328.41,328.41,0,0,1,104.67,147Z"/><path class="cls-2" d="M119.13,147c-2.69-7.19-6.69-16.06-11.11-25l-.72-1.42-.71-1.43c-.14-.28-.14-.42-.28-.71L105.6,117a22.69,22.69,0,0,1-1.43-2.7l-.85-1.43c-2.57-5.13-5.42-10-8.12-14.53C98,92.89,101,86.48,104,80.21l.71-1.42.71-1.43c4.56-9.83,8.7-19.66,11.12-26.5L129.39,54c-2,5.41-4.42,11-7,16.52l-.57,1.28c-1.28,2.71-2.71,5.28-4,8l-.57,1.29c-3.13,6-6.27,11.82-9,17.24,3.28,5.27,6.84,11.25,10.26,17.38l.72,1.43c.28.43.56,1,.85,1.42l.72,1.28c5.5,10.3,10.44,20.32,13.16,27.16Z"/><path class="cls-2" d="M4.87,183.87l-2.2-2.37a5.26,5.26,0,0,0,2.13-3.81v-10H.09v-3.64H8.78v12.73l3.71-2c.57,1,.67,2.51,1.07,3.24C6.94,182.27,5.41,183.27,4.87,183.87Zm2.84-22c-1.27-1.24-3.88-3.61-5.75-5.21l2.68-2.31c.6.5,1.3,1,2,1.61l.3.23c1.33,1.1,2.67,2.27,3.57,3Zm18.14,22.69-.3-3.71c.84,0,1.94,0,2.81,0h1.47c.67,0,1-.23,1-.73V158.51H13.06V155.1H34.78v25.06c0,2-.37,3-1.84,3.68S29.56,184.54,25.85,184.54Zm2.74-20.25H14v-3.11H28.59Zm-1.3,13.87H15.13V167H27.29Zm-3.84-3.11v-4.91H18.87v4.91Z"/><path class="cls-2" d="M42.19,184.51l-2.87-3.78a17.88,17.88,0,0,1,4.77-3.34v-8h-4v-3.51h8.69v11.63a15.35,15.35,0,0,0,2.4,1.27c2.54,1.23,6.85,1.47,11.33,1.47h.33c1.74,0,3.85-.07,6-.17h.37c2.57-.13,5-.33,6.68-.53l0,4c-1.67.14-4.11.24-6.58.3l-.57,0h-.54l-.56,0c-1.84,0-3.61.07-5,.07-4.84,0-8.62-.37-11.53-1.71-2.2-.77-3.57-1.83-4.44-1.83C45.43,180.4,43.59,182.57,42.19,184.51ZM45.93,162c-1.17-1.47-3.67-4.34-5.48-6.31l3.38-1.87c.73.7,1.53,1.47,2.33,2.27l.27.26c1.27,1.27,2.51,2.54,3.28,3.41Zm10,16.84A59.81,59.81,0,0,0,50.34,166c.77-1.57,1.54-3.51,2.27-5.41l.1-.34.14-.33c.8-2.21,1.5-4.31,2-5.81l4.25.93a29.89,29.89,0,0,1-1.74,4.85l-.13.3-.21.46-.13.31c-.87,1.8-1.77,3.5-2.51,5,.64,1,1.31,2.07,1.94,3.21l.17.3a60.49,60.49,0,0,1,3.84,7.88Zm8.15-.07a60,60,0,0,0-6.18-12.79,101,101,0,0,0,5-11.86l4.2,1a68.18,68.18,0,0,1-3,6.78l-.14.3c-.67,1.37-1.33,2.64-1.93,3.81a77.18,77.18,0,0,1,6.34,11.32Zm7.72,0A57.74,57.74,0,0,0,65.24,166a84.39,84.39,0,0,0,5.38-11.89l4.21,1c-.26.7-.57,1.37-.87,2.07l-.13.3c-1.37,3.05-3,6-4.38,8.49.77,1,1.57,2.21,2.31,3.38l.2.3c1.37,2.17,2.61,4.41,3.51,6.18l.13.23.54,1.17Z"/><path class="cls-2" d="M88.55,166.58h2.91V179h7.62v2.55H88.55Z"/><path class="cls-2" d="M99.52,176.07a5.6,5.6,0,0,1,5.83-5.77,5.54,5.54,0,0,1,5.76,5.67,6,6,0,0,1-.06.94h-8.53a2.89,2.89,0,0,0,2.93,2.77,2.82,2.82,0,0,0,2.61-1.5l2.42.68a5.5,5.5,0,0,1-5.15,2.89A5.58,5.58,0,0,1,99.52,176.07Zm8.7-.93a2.9,2.9,0,0,0-2.91-2.79,2.87,2.87,0,0,0-2.86,2.79Z"/><path class="cls-2" d="M116.6,174l.15.39L117,174l2.3-3.46h3l-3.84,5.5,3.9,5.54h-3L117,178.1l-.2-.35-.15.35-2.36,3.43h-3l3.89-5.48-3.82-5.56h3Z"/><path class="cls-2" d="M123.51,170.49h2.83v6.3c0,1.68.64,2.56,1.83,2.56a3.25,3.25,0,0,0,2.85-2v-6.85h2.83v7.88c0,.61.17.82.66.86v2.3a6.43,6.43,0,0,1-1.21.12c-1,0-1.69-.47-1.79-1.29l-.06-.9a5.08,5.08,0,0,1-4.45,2.29c-2.28,0-3.49-1.51-3.49-4.35Z"/><path class="cls-2" d="M144.06,181.53v-6.2c0-1.75-.64-2.53-1.76-2.53a3.24,3.24,0,0,0-2.84,2.3v6.43h-2.83v-11h2.55v2a5,5,0,0,1,4.37-2.24c2.77,0,3.34,2.2,3.34,4.35v6.88Z"/></svg>